<?xml version="1.0" encoding="UTF-8" standalone="no"?>
<!DOCTYPE svg PUBLIC "-//W3C//DTD SVG 1.1//EN" "http://www.w3.org/Graphics/SVG/1.1/DTD/svg11.dtd">
<!--Generated by Intaglio, www.PurgatoryDesign.com-->
<svg version="1.1" viewBox="0,0,576,734" width="576" height="734" xmlns="http://www.w3.org/2000/svg" xmlns:xlink="http://www.w3.org/1999/xlink" xmlns:intaglio="http://purgatorydesign.com/namespaces/intaglio" intaglio:grid="36,36,4,4,0.5,#9999bf,1,0,0,0" intaglio:guides="0.8,#f0f,1,1"><image xlink:href="1.pdf" width="519.063" height="420.194" transform="matrix(1,0,0,1,0,0)"/><path fill="none" stroke="#ff0004" stroke-width="4" d="M161.313,287.344 L280.812,192.618"/><path fill="none" stroke="#ff0004" stroke-width="4" d="M402.282,97.1562 L493.094,25.1711"/><path fill="none" stroke="#000100" stroke-width="3" d="M440.5,465.231 L512.5,465.231"/><path fill="none" stroke="#000100" stroke-width="3" d="M477.125,429 L477.125,501"/><path fill="#0049fd" stroke="#0049fd" d="M484.125,484.481 C484.125,488.347,480.991,491.481,477.125,491.481 C473.259,491.481,470.125,488.347,470.125,484.481 C470.125,480.615,473.259,477.481,477.125,477.481 C480.991,477.481,484.125,480.615,484.125,484.481 Z"/><path fill="#0049fd" stroke="#0049fd" d="M484.125,445.481 C484.125,449.347,480.991,452.481,477.125,452.481 C473.259,452.481,470.125,449.347,470.125,445.481 C470.125,441.615,473.259,438.481,477.125,438.481 C480.991,438.481,484.125,441.615,484.125,445.481 Z"/><path fill="none" stroke="#ff0004" stroke-width="4" stroke-linecap="round" d="M161.313,287.344 C174.853,296.28,186.099,304.551,200,312.875 C210.228,318.999,219.662,323.113,230.25,328.625"/><path fill="none" stroke="#ff0004" stroke-width="4" stroke-linecap="round" d="M230.25,328.625 C236.331,330.725,241.353,333.325,247.625,334.625 C259.291,337.043,269.644,337.631,281.5,339.25"/><path fill="none" stroke="#ff0004" stroke-width="4" stroke-linecap="round" d="M281.5,339.25 C289.244,338.681,295.993,338.948,303.625,337.625 C318.7,335.011,331.413,331.369,346.375,328"/><path fill="none" stroke="#ff0004" stroke-width="4" stroke-linecap="round" d="M346.375,328 C362.562,325.594,376.375,321.467,392.625,321.125 C411.681,320.724,428.131,324.212,447.25,325.875"/><path fill="none" stroke="#ff0004" stroke-width="4" stroke-linecap="round" d="M447.25,325.875 C463.087,327.363,476.663,328.637,492.5,330.125"/><path fill="none" stroke="#ff0004" stroke-width="4" stroke-linecap="round" d="M161.313,287.344 C149.633,276.084,139.103,266.917,127.942,255.172 C119.73,246.531,113.654,238.223,105.961,229.097"/><path fill="none" stroke="#ff0004" stroke-width="4" stroke-linecap="round" d="M105.961,229.097 C102.912,221.494,99.1903,215.233,97.25,207.375 C95.6603,200.937,96.3563,194.944,95.875,188.25"/><path fill="none" stroke="#ff0004" stroke-width="4" stroke-linecap="round" d="M95.875,188.25 C95.8312,185.45,94.9785,182.927,95.75,180.25 C102.241,157.727,110.379,138.883,116.625,116.25 C118.517,109.395,119,103.055,119,96 C119,91.7673,117.456,88.2,116.625,84"/><path fill="none" stroke="#ff0004" stroke-width="4" stroke-linecap="round" d="M107.214,26.5 C110.595,46.8875,113.494,64.3625,116.875,84.75"/><path stroke="#000" d="M287.5,192.103 C287.5,196.854,283.764,200.705,279.156,200.705 C274.548,200.705,270.812,196.854,270.812,192.103 C270.812,187.352,274.548,183.5,279.156,183.5 C283.764,183.5,287.5,187.352,287.5,192.103 Z"/><path stroke="#000" d="M170.375,288.803 C170.375,293.554,166.639,297.405,162.031,297.405 C157.423,297.405,153.687,293.554,153.687,288.803 C153.687,284.052,157.423,280.2,162.031,280.2 C166.639,280.2,170.375,284.052,170.375,288.803 Z"/><path fill="none" stroke="#000100" stroke-width="3" d="M153.687,465 L225.688,465"/><path fill="none" stroke="#000100" stroke-width="3" d="M189.687,429 L189.687,501"/><path fill="#ff0004" stroke="#ff0004" d="M216.375,465 C216.375,468.866,213.241,472,209.375,472 C205.509,472,202.375,468.866,202.375,465 C202.375,461.134,205.509,458,209.375,458 C213.241,458,216.375,461.134,216.375,465 Z"/><path fill="#ff0004" stroke="#ff0004" d="M177.187,465 C177.187,468.866,174.053,472,170.187,472 C166.322,472,163.187,468.866,163.187,465 C163.187,461.134,166.322,458,170.187,458 C174.053,458,177.187,461.134,177.187,465 Z"/><path fill="none" stroke="#ff0004" stroke-width="4" stroke-linecap="round" d="M402.282,97.1562 C401.571,97.8016,399.703,98.4029,400.25,99 C403.498,102.548,408.405,105.805,413.125,109 C422.493,115.342,430.919,120.213,440.5,126.25"/><path fill="none" stroke="#ff0004" stroke-width="4" stroke-linecap="round" d="M440.5,126.25 C450.3,131.15,458.421,136.03,468.5,140.25 C476.709,143.687,484.262,145.369,492.75,148.125"/><path fill="none" stroke="#ff0004" stroke-width="4" stroke-linecap="round" d="M338.031,25.1711 C341.433,32.1987,343.441,38.8046,347.75,45.25 C353.667,54.101,360.425,60.6063,367.25,68.875"/><path fill="none" stroke="#ff0004" stroke-width="4" stroke-linecap="round" d="M367.25,68.875 C379.062,79.6813,389.188,88.9437,401,99.75"/><path stroke="#000" d="M408.25,98.722 C408.25,103.473,404.515,107.325,399.907,107.325 C395.298,107.325,391.563,103.473,391.563,98.722 C391.563,93.9709,395.298,90.1194,399.907,90.1194 C404.515,90.1194,408.25,93.9709,408.25,98.722 Z"/><text fill="#ff0004" font-family="Helvetica" font-size="30" transform="matrix(1,0,0,1,15.0469,475.727)" xml:space="preserve"><tspan>Red lines</tspan></text><text fill="#ff0004" font-family="Helvetica" font-size="30" transform="matrix(1,0,0,1,295.288,475.459)" xml:space="preserve"><tspan>Blue lines</tspan></text></svg>
