<?xml version="1.0" encoding="UTF-8" standalone="no"?>
<!DOCTYPE svg PUBLIC "-//W3C//DTD SVG 1.1//EN" "http://www.w3.org/Graphics/SVG/1.1/DTD/svg11.dtd">
<!--Generated by Intaglio, www.PurgatoryDesign.com-->
<svg version="1.1" viewBox="0,0,576,734" width="576" height="734" xmlns="http://www.w3.org/2000/svg" xmlns:xlink="http://www.w3.org/1999/xlink" xmlns:intaglio="http://purgatorydesign.com/namespaces/intaglio" intaglio:grid="36,36,1,1,0.5,#9999bf,1,0,0,0" intaglio:guides="0.8,#f0f,1,1"><path fill="none" stroke="#000200" stroke-width="3" d="M216,108 L361,108"/><path fill="none" stroke="#000200" stroke-width="3" d="M288.5,36 L288.5,179"/><path fill="#fffffe" stroke="#ff0004" stroke-width="3" d="M296.5,107.5 C296.5,111.918,292.918,115.5,288.5,115.5 C284.082,115.5,280.5,111.918,280.5,107.5 C280.5,103.082,284.082,99.5,288.5,99.5 C292.918,99.5,296.5,103.082,296.5,107.5 Z"/><path fill="none" stroke="#ff0004" stroke-width="3" d="M283.25,102.25 L293.25,112.25"/><path fill="none" stroke="#ff0004" stroke-width="3" d="M283.25,112.75 L293.25,102.75"/><path fill="none" stroke="#000200" stroke-width="3" d="M37.5,107.75 L182.5,107.75"/><path fill="none" stroke="#000200" stroke-width="3" d="M110,35.75 L110,178.75"/><path fill="#fffffe" stroke="#ff0004" stroke-width="3" d="M118,107.25 C118,111.668,114.418,115.25,110,115.25 C105.582,115.25,102,111.668,102,107.25 C102,102.832,105.582,99.25,110,99.25 C114.418,99.25,118,102.832,118,107.25 Z"/><path fill="none" stroke="#ff0004" stroke-width="3" d="M104.75,102 L114.75,112"/><path fill="none" stroke="#ff0004" stroke-width="3" d="M104.75,112.5 L114.75,102.5"/><path fill="none" stroke="#000200" stroke-width="3" d="M397.5,107.5 L542.5,107.5"/><path fill="none" stroke="#000200" stroke-width="3" d="M470,35.5 L470,178.5"/><path fill="#fffffe" stroke="#ff0004" stroke-width="3" d="M478,107 C478,111.418,474.418,115,470,115 C465.582,115,462,111.418,462,107 C462,102.582,465.582,99,470,99 C474.418,99,478,102.582,478,107 Z"/><path fill="none" stroke="#ff0004" stroke-width="3" d="M464.75,101.75 L474.75,111.75"/><path fill="none" stroke="#ff0004" stroke-width="3" d="M464.75,112.25 L474.75,102.25"/><path fill="#ff0004" stroke="#ff0004" d="M80,108 C80,111.866,76.866,115,73,115 C69.134,115,66,111.866,66,108 C66,104.134,69.134,101,73,101 C76.866,101,80,104.134,80,108 Z"/><path fill="#ff0004" stroke="#ff0004" d="M152.75,108.5 C152.75,112.366,149.616,115.5,145.75,115.5 C141.884,115.5,138.75,112.366,138.75,108.5 C138.75,104.634,141.884,101.5,145.75,101.5 C149.616,101.5,152.75,104.634,152.75,108.5 Z"/><path fill="#ff0004" stroke="#ff0004" d="M260.25,90 C260.25,93.866,257.116,97,253.25,97 C249.384,97,246.25,93.866,246.25,90 C246.25,86.134,249.384,83,253.25,83 C257.116,83,260.25,86.134,260.25,90 Z"/><path fill="#ff0004" stroke="#ff0004" d="M260.25,124.5 C260.25,128.366,257.116,131.5,253.25,131.5 C249.384,131.5,246.25,128.366,246.25,124.5 C246.25,120.634,249.384,117.5,253.25,117.5 C257.116,117.5,260.25,120.634,260.25,124.5 Z"/><path fill="#ff0004" stroke="#ff0004" d="M332.25,90 C332.25,93.866,329.116,97,325.25,97 C321.384,97,318.25,93.866,318.25,90 C318.25,86.134,321.384,83,325.25,83 C329.116,83,332.25,86.134,332.25,90 Z"/><path fill="#ff0004" stroke="#ff0004" d="M332.25,124.5 C332.25,128.366,329.116,131.5,325.25,131.5 C321.384,131.5,318.25,128.366,318.25,124.5 C318.25,120.634,321.384,117.5,325.25,117.5 C329.116,117.5,332.25,120.634,332.25,124.5 Z"/><path fill="#ff0004" stroke="#ff0004" d="M477,78.75 C477,82.616,473.866,85.75,470,85.75 C466.134,85.75,463,82.616,463,78.75 C463,74.884,466.134,71.75,470,71.75 C473.866,71.75,477,74.884,477,78.75 Z"/><path fill="#ff0004" stroke="#ff0004" d="M476.75,135.5 C476.75,139.366,473.616,142.5,469.75,142.5 C465.884,142.5,462.75,139.366,462.75,135.5 C462.75,131.634,465.884,128.5,469.75,128.5 C473.616,128.5,476.75,131.634,476.75,135.5 Z"/></svg>
