<?xml version="1.0" encoding="UTF-8" standalone="no"?>
<!DOCTYPE svg PUBLIC "-//W3C//DTD SVG 1.1//EN" "http://www.w3.org/Graphics/SVG/1.1/DTD/svg11.dtd">
<!--Generated by Intaglio, www.PurgatoryDesign.com-->
<svg version="1.1" viewBox="0,0,734,576" width="734" height="576" xmlns="http://www.w3.org/2000/svg" xmlns:xlink="http://www.w3.org/1999/xlink" xmlns:intaglio="http://purgatorydesign.com/namespaces/intaglio" intaglio:grid="36,36,4,4,0.5,#9999bf,1,0,0,1" intaglio:guides="0.8,#f0f,1,1"><path fill="none" stroke="#000100" stroke-width="3" d="M81,18 L81,414"/><path fill="none" stroke="#0049fd" stroke-width="8" d="M81,18 L81,162"/><path fill="none" stroke="#0049fd" stroke-width="8" d="M81,270 L81,414"/><path fill="none" stroke="#000" stroke-width="3" d="M9,216 L153,216"/><path fill="none" stroke="#000" stroke-width="2" d="M63,162 L99,162"/><path fill="none" stroke="#000" stroke-width="2" d="M63,270 L99,270"/><text fill="#000100" font-family="Helvetica" font-style="oblique" font-size="24" transform="matrix(1,0,0,1,108,171)" xml:space="preserve"><tspan>r</tspan></text><text fill="#000100" font-family="Helvetica" font-style="oblique" font-size="24" transform="matrix(1,0,0,1,107.426,279)" xml:space="preserve"><tspan>-r</tspan></text><image xlink:href="1.jpeg" width="1120" height="840" transform="matrix(0.503571,0,0,0.471429,171,18)"/><image xlink:href="1.jpeg" width="1120" height="840" transform="matrix(0.503571,0,0,0.482143,153,9)"/><image xlink:href="1.jpeg" width="1120" height="840" transform="matrix(0.503571,0,0,0.482143,153,18)"/></svg>
