<?xml version="1.0" encoding="UTF-8" standalone="no"?>
<!DOCTYPE svg PUBLIC "-//W3C//DTD SVG 1.1//EN" "http://www.w3.org/Graphics/SVG/1.1/DTD/svg11.dtd">
<!--Generated by Intaglio, www.PurgatoryDesign.com-->
<svg version="1.1" viewBox="0,0,576,734" width="576" height="734" xmlns="http://www.w3.org/2000/svg" xmlns:xlink="http://www.w3.org/1999/xlink" xmlns:intaglio="http://purgatorydesign.com/namespaces/intaglio" intaglio:grid="36,36,1,1,0.5,#9999bf,1,0,0,0" intaglio:guides="0.8,#f0f,1,1"><path fill="none" stroke="#000100" stroke-width="3" d="M394,108 L540,108"/><path fill="none" stroke="#000100" stroke-width="3" d="M467,35 L467,180"/><path fill="#ff0004" stroke="#ff0004" stroke-width="3" d="M429,126.5 C429,129.261,426.761,131.5,424,131.5 C421.239,131.5,419,129.261,419,126.5 C419,123.739,421.239,121.5,424,121.5 C426.761,121.5,429,123.739,429,126.5 Z"/><path fill="#ff0004" stroke="#ff0004" stroke-width="3" d="M429,87.5 C429,90.2614,426.761,92.5,424,92.5 C421.239,92.5,419,90.2614,419,87.5 C419,84.7386,421.239,82.5,424,82.5 C426.761,82.5,429,84.7386,429,87.5 Z"/><path fill="#ff0004" stroke="#ff0004" stroke-width="3" d="M429,126.5 C429,129.261,426.761,131.5,424,131.5 C421.239,131.5,419,129.261,419,126.5 C419,123.739,421.239,121.5,424,121.5 C426.761,121.5,429,123.739,429,126.5 Z"/><path fill="#ff0004" stroke="#ff0004" stroke-width="3" d="M429,87.5 C429,90.2614,426.761,92.5,424,92.5 C421.239,92.5,419,90.2614,419,87.5 C419,84.7386,421.239,82.5,424,82.5 C426.761,82.5,429,84.7386,429,87.5 Z"/><text fill="#000100" font-family="Arial" font-style="italic" font-size="18" transform="matrix(1,0,0,1,81.6616,210)" xml:space="preserve"><tspan>c</tspan><tspan font-style="normal"> &lt; 1/4</tspan></text><text fill="#000100" font-family="Arial" font-style="italic" font-size="18" transform="matrix(1,0,0,1,262.662,210)" xml:space="preserve"><tspan>c</tspan><tspan font-style="normal"> = 1/4</tspan></text><text fill="#000100" font-family="Arial" font-style="italic" font-size="18" transform="matrix(1,0,0,1,439.662,210)" xml:space="preserve"><tspan>c</tspan><tspan font-style="normal"> &gt; 1/4</tspan></text><path fill="#ff0004" stroke="#ff0004" stroke-width="3" d="M518,126.5 C518,129.261,515.761,131.5,513,131.5 C510.239,131.5,508,129.261,508,126.5 C508,123.739,510.239,121.5,513,121.5 C515.761,121.5,518,123.739,518,126.5 Z"/><path fill="#ff0004" stroke="#ff0004" stroke-width="3" d="M518,87.5 C518,90.2614,515.761,92.5,513,92.5 C510.239,92.5,508,90.2614,508,87.5 C508,84.7386,510.239,82.5,513,82.5 C515.761,82.5,518,84.7386,518,87.5 Z"/><path fill="#ff0004" stroke="#ff0004" stroke-width="3" d="M518,126.5 C518,129.261,515.761,131.5,513,131.5 C510.239,131.5,508,129.261,508,126.5 C508,123.739,510.239,121.5,513,121.5 C515.761,121.5,518,123.739,518,126.5 Z"/><path fill="#ff0004" stroke="#ff0004" stroke-width="3" d="M518,87.5 C518,90.2614,515.761,92.5,513,92.5 C510.239,92.5,508,90.2614,508,87.5 C508,84.7386,510.239,82.5,513,82.5 C515.761,82.5,518,84.7386,518,87.5 Z"/></svg>
