<?xml version="1.0" encoding="UTF-8" standalone="no"?>
<!DOCTYPE svg PUBLIC "-//W3C//DTD SVG 1.1//EN" "http://www.w3.org/Graphics/SVG/1.1/DTD/svg11.dtd">
<!--Generated by Intaglio, www.PurgatoryDesign.com-->
<svg version="1.1" viewBox="0,0,576,734" width="576" height="734" xmlns="http://www.w3.org/2000/svg" xmlns:xlink="http://www.w3.org/1999/xlink" xmlns:intaglio="http://purgatorydesign.com/namespaces/intaglio" intaglio:grid="36,36,1,1,0.5,#9999bf,1,0,0,0" intaglio:guides="0.8,#f0f,1,1"><path fill="none" stroke="#000200" stroke-width="3" d="M36,108 L182,108"/><path fill="none" stroke="#000200" stroke-width="3" d="M109,35 L109,180"/><path fill="none" stroke="#000200" stroke-width="3" d="M217,108.5 L363,108.5"/><path fill="none" stroke="#000200" stroke-width="3" d="M290,35.5 L290,180.5"/><path fill="none" stroke="#000200" stroke-width="3" d="M394,108 L540,108"/><path fill="none" stroke="#000200" stroke-width="3" d="M467,35 L467,180"/><path fill="#ff0004" stroke="#ff0004" stroke-width="3" d="M59,107.5 C59,110.261,56.7614,112.5,54,112.5 C51.2386,112.5,49,110.261,49,107.5 C49,104.739,51.2386,102.5,54,102.5 C56.7614,102.5,59,104.739,59,107.5 Z"/><path fill="#ff0004" stroke="#ff0004" stroke-width="3" d="M78,107.5 C78,110.261,75.7614,112.5,73,112.5 C70.2386,112.5,68,110.261,68,107.5 C68,104.739,70.2386,102.5,73,102.5 C75.7614,102.5,78,104.739,78,107.5 Z"/><path fill="#ff0004" stroke="#ff0004" stroke-width="3" d="M167.5,108 C167.5,110.761,165.261,113,162.5,113 C159.739,113,157.5,110.761,157.5,108 C157.5,105.239,159.739,103,162.5,103 C165.261,103,167.5,105.239,167.5,108 Z"/><path fill="#ff0004" stroke="#ff0004" stroke-width="3" d="M148.5,108 C148.5,110.761,146.261,113,143.5,113 C140.739,113,138.5,110.761,138.5,108 C138.5,105.239,140.739,103,143.5,103 C146.261,103,148.5,105.239,148.5,108 Z"/><path fill="#ff0004" stroke="#ff0004" stroke-width="3" d="M248.5,108.5 C248.5,111.261,246.261,113.5,243.5,113.5 C240.739,113.5,238.5,111.261,238.5,108.5 C238.5,105.739,240.739,103.5,243.5,103.5 C246.261,103.5,248.5,105.739,248.5,108.5 Z"/><path fill="#ff0004" stroke="#ff0004" stroke-width="3" d="M338.5,108.5 C338.5,111.261,336.261,113.5,333.5,113.5 C330.739,113.5,328.5,111.261,328.5,108.5 C328.5,105.739,330.739,103.5,333.5,103.5 C336.261,103.5,338.5,105.739,338.5,108.5 Z"/><path fill="#ff0004" stroke="#ff0004" stroke-width="3" d="M429,126.5 C429,129.261,426.761,131.5,424,131.5 C421.239,131.5,419,129.261,419,126.5 C419,123.739,421.239,121.5,424,121.5 C426.761,121.5,429,123.739,429,126.5 Z"/><path fill="#ff0004" stroke="#ff0004" stroke-width="3" d="M429,87.5 C429,90.2614,426.761,92.5,424,92.5 C421.239,92.5,419,90.2614,419,87.5 C419,84.7386,421.239,82.5,424,82.5 C426.761,82.5,429,84.7386,429,87.5 Z"/><path fill="#ff0004" stroke="#ff0004" stroke-width="3" d="M429,126.5 C429,129.261,426.761,131.5,424,131.5 C421.239,131.5,419,129.261,419,126.5 C419,123.739,421.239,121.5,424,121.5 C426.761,121.5,429,123.739,429,126.5 Z"/><path fill="#ff0004" stroke="#ff0004" stroke-width="3" d="M429,87.5 C429,90.2614,426.761,92.5,424,92.5 C421.239,92.5,419,90.2614,419,87.5 C419,84.7386,421.239,82.5,424,82.5 C426.761,82.5,429,84.7386,429,87.5 Z"/><text fill="#000200" font-family="Arial" font-style="italic" font-size="18" transform="matrix(1,0,0,1,81.6616,210)" xml:space="preserve"><tspan>c</tspan><tspan font-style="normal"> &lt; 1/4</tspan></text><text fill="#000200" font-family="Arial" font-style="italic" font-size="18" transform="matrix(1,0,0,1,262.662,210)" xml:space="preserve"><tspan>c</tspan><tspan font-style="normal"> = 1/4</tspan></text><text fill="#000200" font-family="Arial" font-style="italic" font-size="18" transform="matrix(1,0,0,1,439.662,210)" xml:space="preserve"><tspan>c</tspan><tspan font-style="normal"> &gt; 1/4</tspan></text><path fill="#ff0004" stroke="#ff0004" stroke-width="3" d="M518,126.5 C518,129.261,515.761,131.5,513,131.5 C510.239,131.5,508,129.261,508,126.5 C508,123.739,510.239,121.5,513,121.5 C515.761,121.5,518,123.739,518,126.5 Z"/><path fill="#ff0004" stroke="#ff0004" stroke-width="3" d="M518,87.5 C518,90.2614,515.761,92.5,513,92.5 C510.239,92.5,508,90.2614,508,87.5 C508,84.7386,510.239,82.5,513,82.5 C515.761,82.5,518,84.7386,518,87.5 Z"/><path fill="#ff0004" stroke="#ff0004" stroke-width="3" d="M518,126.5 C518,129.261,515.761,131.5,513,131.5 C510.239,131.5,508,129.261,508,126.5 C508,123.739,510.239,121.5,513,121.5 C515.761,121.5,518,123.739,518,126.5 Z"/><path fill="#ff0004" stroke="#ff0004" stroke-width="3" d="M518,87.5 C518,90.2614,515.761,92.5,513,92.5 C510.239,92.5,508,90.2614,508,87.5 C508,84.7386,510.239,82.5,513,82.5 C515.761,82.5,518,84.7386,518,87.5 Z"/></svg>
