<?xml version="1.0" encoding="UTF-8" standalone="no"?>
<!DOCTYPE svg PUBLIC "-//W3C//DTD SVG 1.1//EN" "http://www.w3.org/Graphics/SVG/1.1/DTD/svg11.dtd">
<!--Generated by Intaglio, www.PurgatoryDesign.com-->
<svg version="1.1" viewBox="0,0,576,734" width="576" height="734" xmlns="http://www.w3.org/2000/svg" xmlns:xlink="http://www.w3.org/1999/xlink" xmlns:intaglio="http://purgatorydesign.com/namespaces/intaglio" intaglio:grid="36,36,10,10,0.5,#9999bf,1,0,0,1" intaglio:guides="0.8,#f0f,1,1"><image xlink:href="6.jpeg" width="856" height="762" transform="matrix(0.132593,0,0,0.132593,245,6.875)"/><image xlink:href="6.jpeg" width="856" height="762" transform="matrix(0.132593,0,0,0.132593,24.5,152.375)"/><image xlink:href="6.jpeg" width="856" height="762" transform="matrix(0.132593,0,0,0.132593,110.5,152.375)"/><image xlink:href="6.jpeg" width="856" height="762" transform="matrix(0.132593,0,0,0.132593,180.75,152.375)"/><image xlink:href="6.jpeg" width="856" height="762" transform="matrix(0.132593,0,0,0.132593,318.75,152.375)"/><image xlink:href="6.jpeg" width="856" height="762" transform="matrix(0.132593,0,0,0.132593,432.25,152.375)"/><g><path fill="none" intaglio:arrow-start="8" intaglio:arrow-end="8" stroke="#000100" d="M81.25,266.4 L167.25,266.4"/><path fill="none" intaglio:omit="yes" stroke="#000100" d="M81.25,270.9 L81.25,261.9 M89.25,270.4 L81.25,266.45 L81.25,266.35 L89.25,262.4"/><path fill="none" intaglio:omit="yes" stroke="#000100" d="M167.25,261.9 L167.25,270.9 M159.25,262.4 L167.25,266.35 L167.25,266.45 L159.25,270.4"/></g><g><path fill="none" intaglio:arrow-start="8" intaglio:arrow-end="8" stroke="#000100" d="M167.25,266.4 L237.5,266.4"/><path fill="none" intaglio:omit="yes" stroke="#000100" d="M167.25,270.9 L167.25,261.9 M175.25,270.4 L167.25,266.45 L167.25,266.35 L175.25,262.4"/><path fill="none" intaglio:omit="yes" stroke="#000100" d="M237.5,261.9 L237.5,270.9 M229.5,262.4 L237.5,266.35 L237.5,266.45 L229.5,270.4"/></g><g><path fill="none" intaglio:arrow-start="8" intaglio:arrow-end="8" stroke="#000100" d="M374.4,266.4 L489,266.4"/><path fill="none" intaglio:omit="yes" stroke="#000100" d="M374.4,270.9 L374.4,261.9 M382.4,270.4 L374.4,266.45 L374.4,266.35 L382.4,262.4"/><path fill="none" intaglio:omit="yes" stroke="#000100" d="M489,261.9 L489,270.9 M481,262.4 L489,266.35 L489,266.45 L481,270.4"/></g><path fill="none" stroke="#003acb" stroke-width="2" stroke-dasharray="2" d="M294.25,180 L318.75,180"/><g><path fill="none" intaglio:arrow-end="1" stroke="#ff0004" stroke-width="3" d="M302.4,111.6 L302.4,136.95" intaglio:d="M302.4,111.6 L302.4,151.2"/><path fill="#ff0004" intaglio:omit="yes" d="M308.4,136.2 L302.4,151.2 L296.4,136.2"/></g><text fill="#000100" font-family="Helvetica" font-size="18" transform="matrix(1,0,0,1,124.25,291.6)" xml:space="preserve"><tspan>X</tspan><tspan baseline-shift="sub">1</tspan></text><text fill="#000100" font-family="Helvetica" font-size="18" transform="matrix(1,0,0,1,194.4,291.6)" xml:space="preserve"><tspan>X</tspan><tspan baseline-shift="sub">2</tspan></text><text fill="#000100" font-family="Helvetica" font-size="18" transform="matrix(1,0,0,1,421.751,291.6)" xml:space="preserve"><tspan>X</tspan><tspan baseline-shift="sub">n-1</tspan></text></svg>
