<?xml version="1.0" encoding="UTF-8" standalone="no"?>
<!DOCTYPE svg PUBLIC "-//W3C//DTD SVG 1.1//EN" "http://www.w3.org/Graphics/SVG/1.1/DTD/svg11.dtd">
<!--Generated by Intaglio, www.PurgatoryDesign.com-->
<svg version="1.1" viewBox="0,0,734,576" width="734" height="576" xmlns="http://www.w3.org/2000/svg" xmlns:xlink="http://www.w3.org/1999/xlink" xmlns:intaglio="http://purgatorydesign.com/namespaces/intaglio" intaglio:grid="36,36,1,1,0.5,#9999bf,1,0,0,0" intaglio:guides="0.8,#f0f,1,1"><path fill="none" stroke="#000100" stroke-width="3" d="M36.5,107 L682.5,107"/><path fill="none" stroke="#000100" stroke-width="3" d="M359.5,37 L359.5,182.5"/><path fill="#ff0004" stroke="#ff0004" d="M368.25,107 C368.25,111.832,364.332,115.75,359.5,115.75 C354.668,115.75,350.75,111.832,350.75,107 C350.75,102.168,354.668,98.25,359.5,98.25 C364.332,98.25,368.25,102.168,368.25,107 Z"/><text fill="#000100" font-family="Helvetica" font-style="oblique" font-size="24" transform="matrix(1,0,0,1,369.721,141)" xml:space="preserve"><tspan>v</tspan><tspan baseline-shift="sub">n</tspan><tspan> </tspan><tspan font-style="normal">=</tspan><tspan> 0</tspan></text><path fill="#ff0004" stroke="#ff0004" d="M217.75,107 C217.75,111.832,213.832,115.75,209,115.75 C204.168,115.75,200.25,111.832,200.25,107 C200.25,102.168,204.168,98.25,209,98.25 C213.832,98.25,217.75,102.168,217.75,107 Z"/><path fill="#ff0004" stroke="#ff0004" d="M167.25,107 C167.25,111.832,163.332,115.75,158.5,115.75 C153.668,115.75,149.75,111.832,149.75,107 C149.75,102.168,153.668,98.25,158.5,98.25 C163.332,98.25,167.25,102.168,167.25,107 Z"/><path fill="#ff0004" stroke="#ff0004" d="M550.25,107 C550.25,111.832,546.332,115.75,541.5,115.75 C536.668,115.75,532.75,111.832,532.75,107 C532.75,102.168,536.668,98.25,541.5,98.25 C546.332,98.25,550.25,102.168,550.25,107 Z"/><text fill="#000100" font-family="Helvetica" font-style="oblique" font-size="24" transform="matrix(1,0,0,1,96.5,152)" xml:space="preserve"><tspan>v</tspan><tspan baseline-shift="sub">j</tspan><tspan> </tspan><tspan font-style="normal">&lt;</tspan><tspan> 0</tspan><tspan font-style="normal"> if </tspan><tspan>k</tspan><tspan baseline-shift="sub">j</tspan><tspan font-style="normal"> is odd</tspan></text><text fill="#000100" font-family="Helvetica" font-style="oblique" font-size="24" transform="matrix(1,0,0,1,489,152)" xml:space="preserve"><tspan>v</tspan><tspan baseline-shift="sub">j</tspan><tspan> </tspan><tspan font-style="normal">&gt;</tspan><tspan> 0</tspan><tspan font-style="normal"> if </tspan><tspan>k</tspan><tspan baseline-shift="sub">j</tspan><tspan font-style="normal"> is even</tspan></text></svg>
