<?xml version="1.0" encoding="UTF-8" standalone="no"?>
<!DOCTYPE svg PUBLIC "-//W3C//DTD SVG 1.1//EN" "http://www.w3.org/Graphics/SVG/1.1/DTD/svg11.dtd">
<!--Generated by Intaglio, www.PurgatoryDesign.com-->
<svg version="1.1" viewBox="0,0,576,734" width="576" height="734" xmlns="http://www.w3.org/2000/svg" xmlns:xlink="http://www.w3.org/1999/xlink" xmlns:intaglio="http://purgatorydesign.com/namespaces/intaglio" intaglio:grid="36,36,1,1,0.5,#9999bf,1,0,0,0" intaglio:guides="0.8,#f0f,1,1"><image xlink:href="1.pdf" width="560" height="420" transform="matrix(1.23839,0,0,0.759524,-69.5,126)"/><path fill="none" stroke="#000100" stroke-width="3" d="M379,79.75 L451,79.75"/><path fill="none" stroke="#000100" stroke-width="3" d="M415,43.75 L415,115.75"/><path fill="#0049fd" stroke="#0049fd" d="M422,99.2309 C422,103.097,418.866,106.231,415,106.231 C411.134,106.231,408,103.097,408,99.2309 C408,95.365,411.134,92.2309,415,92.2309 C418.866,92.2309,422,95.365,422,99.2309 Z"/><path fill="#0049fd" stroke="#0049fd" d="M422,60.2309 C422,64.0969,418.866,67.2309,415,67.2309 C411.134,67.2309,408,64.0969,408,60.2309 C408,56.365,411.134,53.2309,415,53.2309 C418.866,53.2309,422,56.365,422,60.2309 Z"/><path fill="none" stroke="#000100" stroke-width="3" d="M279.344,79.75 L351.344,79.75"/><path fill="none" stroke="#000100" stroke-width="3" d="M315.344,43.75 L315.344,115.75"/><path fill="#ff0004" stroke="#ff0004" d="M342.031,79.75 C342.031,83.616,338.897,86.75,335.031,86.75 C331.165,86.75,328.031,83.616,328.031,79.75 C328.031,75.884,331.165,72.75,335.031,72.75 C338.897,72.75,342.031,75.884,342.031,79.75 Z"/><path fill="#ff0004" stroke="#ff0004" d="M302.844,79.75 C302.844,83.616,299.71,86.75,295.844,86.75 C291.978,86.75,288.844,83.616,288.844,79.75 C288.844,75.884,291.978,72.75,295.844,72.75 C299.71,72.75,302.844,75.884,302.844,79.75 Z"/><g><path fill="none" intaglio:arrow-end="1" stroke="#ff0004" stroke-width="3" d="M323.984,109.231 L339.24,137.123" intaglio:d="M323.984,109.231 L346.078,149.625"/><path fill="#ff0004" intaglio:omit="yes" d="M344.144,133.586 L346.078,149.625 L333.616,139.344"/></g><g><path fill="none" intaglio:arrow-end="1" stroke="#0049fd" stroke-width="3" d="M397.5,108.99 L384.876,136.883" intaglio:d="M397.5,108.99 L379,149.865"/><path fill="#0049fd" intaglio:omit="yes" d="M390.651,138.674 L379,149.865 L379.719,133.726"/></g></svg>
