<?xml version="1.0" encoding="UTF-8" standalone="no"?>
<!DOCTYPE svg PUBLIC "-//W3C//DTD SVG 1.1//EN" "http://www.w3.org/Graphics/SVG/1.1/DTD/svg11.dtd">
<!--Generated by Intaglio, www.PurgatoryDesign.com-->
<svg version="1.1" viewBox="0,0,734,576" width="734" height="576" xmlns="http://www.w3.org/2000/svg" xmlns:xlink="http://www.w3.org/1999/xlink" xmlns:intaglio="http://purgatorydesign.com/namespaces/intaglio" intaglio:grid="36,36,1,1,0.5,#9999bf,1,0,0,0" intaglio:guides="0.8,#f0f,1,1"><path fill="none" stroke="#000100" stroke-width="3" d="M36.5,107 L682.5,107"/><path fill="none" stroke="#000100" stroke-width="3" d="M359.5,37 L359.5,182.5"/><path fill="#0000ca" stroke="#002b98" d="M64.75,107 C64.75,111.832,60.8325,115.75,56,115.75 C51.1675,115.75,47.25,111.832,47.25,107 C47.25,102.168,51.1675,98.25,56,98.25 C60.8325,98.25,64.75,102.168,64.75,107 Z"/><path fill="#ff0004" stroke="#ff0004" d="M368.25,107 C368.25,111.832,364.332,115.75,359.5,115.75 C354.668,115.75,350.75,111.832,350.75,107 C350.75,102.168,354.668,98.25,359.5,98.25 C364.332,98.25,368.25,102.168,368.25,107 Z"/><text fill="#000100" font-family="Helvetica" font-style="oblique" font-size="24" transform="matrix(1,0,0,1,36.1719,147)" xml:space="preserve"><tspan>n </tspan><tspan font-style="normal">negative</tspan><tspan x="0" y="28" font-style="normal">eigenvalues</tspan><tspan x="0" y="56" font-style="normal">far from 0</tspan></text><text fill="#000100" font-family="Helvetica" font-size="24" transform="matrix(1,0,0,1,475.564,147)" xml:space="preserve"><tspan>essential spectrum</tspan><tspan x="0" y="28">bounded away from 0</tspan></text><path fill="#ff0004" stroke="#ff0004" d="M350.75,107 C350.75,111.832,346.832,115.75,342,115.75 C337.168,115.75,333.25,111.832,333.25,107 C333.25,102.168,337.168,98.25,342,98.25 C346.832,98.25,350.75,102.168,350.75,107 Z"/><path fill="#ff0004" stroke="#ff0004" d="M322.25,107 C322.25,111.832,318.332,115.75,313.5,115.75 C308.668,115.75,304.75,111.832,304.75,107 C304.75,102.168,308.668,98.25,313.5,98.25 C318.332,98.25,322.25,102.168,322.25,107 Z"/><path fill="#ff0004" stroke="#ff0004" d="M385.75,107 C385.75,111.832,381.832,115.75,377,115.75 C372.168,115.75,368.25,111.832,368.25,107 C368.25,102.168,372.168,98.25,377,98.25 C381.832,98.25,385.75,102.168,385.75,107 Z"/><path fill="#0000ca" stroke="#002b98" d="M82.25,107 C82.25,111.832,78.3325,115.75,73.5,115.75 C68.6675,115.75,64.75,111.832,64.75,107 C64.75,102.168,68.6675,98.25,73.5,98.25 C78.3325,98.25,82.25,102.168,82.25,107 Z"/><path fill="#0000ca" stroke="#002b98" d="M99.75,107 C99.75,111.832,95.8325,115.75,91,115.75 C86.1675,115.75,82.25,111.832,82.25,107 C82.25,102.168,86.1675,98.25,91,98.25 C95.8325,98.25,99.75,102.168,99.75,107 Z"/><path fill="#0000ca" stroke="#002b98" d="M126.75,107 C126.75,111.832,122.832,115.75,118,115.75 C113.168,115.75,109.25,111.832,109.25,107 C109.25,102.168,113.168,98.25,118,98.25 C122.832,98.25,126.75,102.168,126.75,107 Z"/><path fill="none" stroke="#00d013" stroke-width="8" d="M468,107 L682.5,107"/><path fill="none" stroke="#000" stroke-width="2" d="M468,98.25 L468,119.363"/><text fill="#000100" font-family="Helvetica" font-style="oblique" font-size="24" transform="matrix(1,0,0,1,203.504,147)" xml:space="preserve"><tspan>n </tspan><tspan font-style="normal">eigenvalues</tspan><tspan x="0" y="28" font-style="normal">close to 0</tspan></text><text fill="#000100" font-family="Helvetica" font-size="18" transform="matrix(1,0,0,1,452,87.5)" xml:space="preserve"><tspan>1 - </tspan><tspan font-style="oblique">c</tspan><tspan baseline-shift="super">4</tspan><tspan>/4</tspan></text></svg>
