<?xml version="1.0" encoding="UTF-8" standalone="no"?>
<!DOCTYPE svg PUBLIC "-//W3C//DTD SVG 1.1//EN" "http://www.w3.org/Graphics/SVG/1.1/DTD/svg11.dtd">
<!--Generated by Intaglio, www.PurgatoryDesign.com-->
<svg version="1.1" viewBox="0,0,576,734" width="576" height="734" xmlns="http://www.w3.org/2000/svg" xmlns:xlink="http://www.w3.org/1999/xlink" xmlns:intaglio="http://purgatorydesign.com/namespaces/intaglio" intaglio:grid="36,36,1,1,0.5,#9999bf,1,0,0,0" intaglio:guides="0.8,#f0f,1,1"><image xlink:href="1.pdf" width="560" height="420" transform="matrix(1,0,0,1,0,0)"/><g><path fill="#fff" intaglio:arrow-start="3" intaglio:arrow-end="3" stroke="#fff" stroke-width="2" d="M174,175 L308,175 L308,229 L174,229 L174,175 Z"/><path fill="#fff" intaglio:omit="yes" stroke="#fff" stroke-width="2" d="M174,180.625 C174,176.875,174,173.125,174,169.375 M184.938,180 C181.292,178.354,177.646,176.708,174,175.062 C174,175.021,174,174.979,174,174.938 C177.646,173.292,181.292,171.646,184.938,170 Z"/><path fill="#fff" intaglio:omit="yes" stroke="#fff" stroke-width="2" d="M179.625,175 C175.875,175,172.125,175,168.375,175 M179,185.938 C177.354,182.292,175.708,178.646,174.062,175 C174.021,175,173.979,175,173.938,175 C172.292,178.646,170.646,182.292,169,185.938 Z"/></g><g><path fill="none" intaglio:arrow-start="3" intaglio:arrow-end="3" stroke="#000" stroke-width="2" d="M186.5,220 L286.5,220"/><path intaglio:omit="yes" stroke="#000" stroke-width="2" d="M186.5,225.625 L186.5,214.375 M197.438,225 L186.5,220.062 L186.5,219.938 L197.438,215 Z"/><path intaglio:omit="yes" stroke="#000" stroke-width="2" d="M286.5,214.375 L286.5,225.625 M275.562,215 L286.5,219.938 L286.5,220.062 L275.562,225 Z"/></g><text font-family="Arial" font-style="italic" font-size="24" transform="matrix(1,0,0,1,207.748,208.363)" xml:space="preserve"><tspan>2π /β</tspan></text></svg>
