<?xml version="1.0" encoding="UTF-8" standalone="no"?>
<!DOCTYPE svg PUBLIC "-//W3C//DTD SVG 1.1//EN" "http://www.w3.org/Graphics/SVG/1.1/DTD/svg11.dtd">
<!--Generated by Intaglio, www.PurgatoryDesign.com-->
<svg version="1.1" viewBox="0,0,576,734" width="576" height="734" xmlns="http://www.w3.org/2000/svg" xmlns:xlink="http://www.w3.org/1999/xlink" xmlns:intaglio="http://purgatorydesign.com/namespaces/intaglio" intaglio:grid="36,36,1,1,0.5,#9999bf,1,0,0,0" intaglio:guides="0.8,#f0f,1,1"><image xlink:href="1.pdf" width="560" height="420" transform="matrix(1,0,0,1,0,0)"/><path fill="#d20000" stroke="#000" d="M322,346.5 C322,348.433,320.433,350,318.5,350 C316.567,350,315,348.433,315,346.5 C315,344.567,316.567,343,318.5,343 C320.433,343,322,344.567,322,346.5 Z"/><path fill="#d20000" stroke="#000" d="M361.75,279.125 C361.75,281.058,360.183,282.625,358.25,282.625 C356.317,282.625,354.75,281.058,354.75,279.125 C354.75,277.192,356.317,275.625,358.25,275.625 C360.183,275.625,361.75,277.192,361.75,279.125 Z"/><path fill="#d20000" stroke="#000" d="M341.625,218.625 C341.625,220.558,340.058,222.125,338.125,222.125 C336.192,222.125,334.625,220.558,334.625,218.625 C334.625,216.692,336.192,215.125,338.125,215.125 C340.058,215.125,341.625,216.692,341.625,218.625 Z"/><path fill="#d20000" stroke="#000" d="M381.5,250.875 C381.5,252.808,379.933,254.375,378,254.375 C376.067,254.375,374.5,252.808,374.5,250.875 C374.5,248.942,376.067,247.375,378,247.375 C379.933,247.375,381.5,248.942,381.5,250.875 Z"/><path fill="#d20000" stroke="#000" d="M401.75,264.375 C401.75,266.308,400.183,267.875,398.25,267.875 C396.317,267.875,394.75,266.308,394.75,264.375 C394.75,262.442,396.317,260.875,398.25,260.875 C400.183,260.875,401.75,262.442,401.75,264.375 Z"/><path fill="#7dff18" stroke="#000" d="M333.75,258.625 C333.75,260.558,332.183,262.125,330.25,262.125 C328.317,262.125,326.75,260.558,326.75,258.625 C326.75,256.692,328.317,255.125,330.25,255.125 C332.183,255.125,333.75,256.692,333.75,258.625 Z"/><path fill="#7dff18" stroke="#000" d="M353.5,258.625 C353.5,260.558,351.933,262.125,350,262.125 C348.067,262.125,346.5,260.558,346.5,258.625 C346.5,256.692,348.067,255.125,350,255.125 C351.933,255.125,353.5,256.692,353.5,258.625 Z"/><path fill="#7dff18" stroke="#000" d="M373,258.625 C373,260.558,371.433,262.125,369.5,262.125 C367.567,262.125,366,260.558,366,258.625 C366,256.692,367.567,255.125,369.5,255.125 C371.433,255.125,373,256.692,373,258.625 Z"/><path fill="#7dff18" stroke="#000" d="M391.25,258.625 C391.25,260.558,389.683,262.125,387.75,262.125 C385.817,262.125,384.25,260.558,384.25,258.625 C384.25,256.692,385.817,255.125,387.75,255.125 C389.683,255.125,391.25,256.692,391.25,258.625 Z"/><path fill="none" stroke="#000" stroke-width="3" d="M307.625,334.5 L330.25,334.5 L330.25,357.125 L307.625,357.125 L307.625,334.5 Z"/></svg>
