<?xml version="1.0" encoding="UTF-8" standalone="no"?>
<!DOCTYPE svg PUBLIC "-//W3C//DTD SVG 1.1//EN" "http://www.w3.org/Graphics/SVG/1.1/DTD/svg11.dtd">
<!--Generated by Intaglio, www.PurgatoryDesign.com-->
<svg version="1.1" viewBox="0,0,576,734" width="576" height="734" xmlns="http://www.w3.org/2000/svg" xmlns:xlink="http://www.w3.org/1999/xlink" xmlns:intaglio="http://purgatorydesign.com/namespaces/intaglio" intaglio:grid="36,36,1,1,0.5,#9999bf,1,0,0,0" intaglio:guides="0.8,#f0f,1,1"><path fill="none" stroke="#000100" stroke-width="3" d="M36.5,107 L182,107"/><path fill="none" stroke="#000100" stroke-width="3" d="M110,35 L110,179"/><path fill="#000" stroke="#000" d="M118.75,107 C118.75,111.832,114.832,115.75,110,115.75 C105.168,115.75,101.25,111.832,101.25,107 C101.25,102.168,105.168,98.25,110,98.25 C114.832,98.25,118.75,102.168,118.75,107 Z"/><path fill="#0000ca" stroke="#002b98" d="M81.75,107 C81.75,111.832,77.8325,115.75,73,115.75 C68.1675,115.75,64.25,111.832,64.25,107 C64.25,102.168,68.1675,98.25,73,98.25 C77.8325,98.25,81.75,102.168,81.75,107 Z"/><path fill="#ff0004" stroke="#ff0004" d="M373.75,107 C373.75,111.832,369.832,115.75,365,115.75 C360.168,115.75,356.25,111.832,356.25,107 C356.25,102.168,360.168,98.25,365,98.25 C369.832,98.25,373.75,102.168,373.75,107 Z"/><text fill="#000100" font-family="Helvetica" font-style="oblique" font-size="24" transform="matrix(1,0,0,1,99,150.5)" xml:space="preserve"><tspan>K</tspan><tspan baseline-shift="sub">j</tspan><tspan font-style="normal"> odd</tspan></text><text fill="#000100" font-family="Helvetica" font-style="oblique" font-size="24" transform="matrix(1,0,0,1,331.727,150.5)" xml:space="preserve"><tspan>K</tspan><tspan baseline-shift="sub">j</tspan><tspan font-style="normal"> even</tspan></text></svg>
