<?xml version="1.0" encoding="UTF-8" standalone="no"?>
<!DOCTYPE svg PUBLIC "-//W3C//DTD SVG 1.1//EN" "http://www.w3.org/Graphics/SVG/1.1/DTD/svg11.dtd">
<!--Generated by Intaglio, www.PurgatoryDesign.com-->
<svg version="1.1" viewBox="0,0,576,734" width="576" height="734" xmlns="http://www.w3.org/2000/svg" xmlns:xlink="http://www.w3.org/1999/xlink" xmlns:intaglio="http://purgatorydesign.com/namespaces/intaglio" intaglio:grid="36,36,1,1,0.5,#9999bf,1,0,0,0" intaglio:guides="0.8,#f0f,1,1"><image xlink:href="1.pdf" width="560" height="420" transform="matrix(1,0,0,1,0,0)"/><text font-family="Symbol" font-size="18" transform="matrix(1,0,0,1,210.774,198)" xml:space="preserve"><tspan> 2π/β</tspan></text><g><path fill="none" intaglio:arrow-start="8" intaglio:arrow-end="8" stroke="#000" stroke-width="2" d="M187.5,210 L284.5,210"/><path fill="none" intaglio:omit="yes" stroke="#000" stroke-width="2" d="M187.5,215.625 L187.5,204.375 M197.5,215 L187.5,210.062 L187.5,209.938 L197.5,205"/><path fill="none" intaglio:omit="yes" stroke="#000" stroke-width="2" d="M284.5,204.375 L284.5,215.625 M274.5,205 L284.5,209.938 L284.5,210.062 L274.5,215"/></g><path fill="#d20000" stroke="#000" d="M144.25,362.5 C144.25,364.433,142.683,366,140.75,366 C138.817,366,137.25,364.433,137.25,362.5 C137.25,360.567,138.817,359,140.75,359 C142.683,359,144.25,360.567,144.25,362.5 Z"/><path fill="#d20000" stroke="#000" d="M191,242.25 C191,244.183,189.433,245.75,187.5,245.75 C185.567,245.75,184,244.183,184,242.25 C184,240.317,185.567,238.75,187.5,238.75 C189.433,238.75,191,240.317,191,242.25 Z"/><path fill="#d20000" stroke="#000" d="M288,269.5 C288,271.433,286.433,273,284.5,273 C282.567,273,281,271.433,281,269.5 C281,267.567,282.567,266,284.5,266 C286.433,266,288,267.567,288,269.5 Z"/><path fill="#d20000" stroke="#000" d="M239.5,290.25 C239.5,292.183,237.933,293.75,236,293.75 C234.067,293.75,232.5,292.183,232.5,290.25 C232.5,288.317,234.067,286.75,236,286.75 C237.933,286.75,239.5,288.317,239.5,290.25 Z"/><path fill="#7dff18" stroke="#000" d="M218.5,275.75 C218.5,277.683,216.933,279.25,215,279.25 C213.067,279.25,211.5,277.683,211.5,275.75 C211.5,273.817,213.067,272.25,215,272.25 C216.933,272.25,218.5,273.817,218.5,275.75 Z"/><path fill="#7dff18" stroke="#000" d="M172,275.75 C172,277.683,170.433,279.25,168.5,279.25 C166.567,279.25,165,277.683,165,275.75 C165,273.817,166.567,272.25,168.5,272.25 C170.433,272.25,172,273.817,172,275.75 Z"/><path fill="#7dff18" stroke="#000" d="M267,275.75 C267,277.683,265.433,279.25,263.5,279.25 C261.567,279.25,260,277.683,260,275.75 C260,273.817,261.567,272.25,263.5,272.25 C265.433,272.25,267,273.817,267,275.75 Z"/></svg>
