<?xml version="1.0" encoding="UTF-8" standalone="no"?>
<!DOCTYPE svg PUBLIC "-//W3C//DTD SVG 1.1//EN" "http://www.w3.org/Graphics/SVG/1.1/DTD/svg11.dtd">
<!--Generated by Intaglio, www.PurgatoryDesign.com-->
<svg version="1.1" viewBox="0,0,576,734" width="576" height="734" xmlns="http://www.w3.org/2000/svg" xmlns:xlink="http://www.w3.org/1999/xlink" xmlns:intaglio="http://purgatorydesign.com/namespaces/intaglio" intaglio:grid="36,36,10,10,0.5,#9999bf,1,0,0,0" intaglio:guides="0.8,#f0f,1,1"><g><path fill="none" intaglio:arrow-start="8" intaglio:arrow-end="8" stroke="#000100" d="M63.25,152.2 L149.25,152.2"/><path fill="none" intaglio:omit="yes" stroke="#000100" d="M63.25,156.7 L63.25,147.7 M71.25,156.2 L63.25,152.25 L63.25,152.15 L71.25,148.2"/><path fill="none" intaglio:omit="yes" stroke="#000100" d="M149.25,147.7 L149.25,156.7 M141.25,148.2 L149.25,152.15 L149.25,152.25 L141.25,156.2"/></g><g><path fill="none" intaglio:arrow-start="8" intaglio:arrow-end="8" stroke="#000100" d="M149.769,152.2 L224.772,152.2"/><path fill="none" intaglio:omit="yes" stroke="#000100" d="M149.769,156.7 L149.769,147.7 M157.769,156.2 L149.769,152.25 L149.769,152.15 L157.769,148.2"/><path fill="none" intaglio:omit="yes" stroke="#000100" d="M224.772,147.7 L224.772,156.7 M216.772,148.2 L224.772,152.15 L224.772,152.25 L216.772,156.2"/></g><g><path fill="none" intaglio:arrow-start="8" intaglio:arrow-end="8" stroke="#000100" d="M386.7,152.2 L480.2,152.2"/><path fill="none" intaglio:omit="yes" stroke="#000100" d="M386.7,156.7 L386.7,147.7 M394.7,156.2 L386.7,152.25 L386.7,152.15 L394.7,148.2"/><path fill="none" intaglio:omit="yes" stroke="#000100" d="M480.2,147.7 L480.2,156.7 M472.2,148.2 L480.2,152.15 L480.2,152.25 L472.2,156.2"/></g><path fill="none" stroke="#003acb" stroke-width="2" stroke-dasharray="2" d="M280.762,241.988 L331.5,241.988"/><g><path fill="none" intaglio:arrow-end="1" stroke="#ff0004" stroke-width="3" d="M304.772,100.119 L304.772,125.469" intaglio:d="M304.772,100.119 L304.772,139.719"/><path fill="#ff0004" intaglio:omit="yes" d="M310.772,124.719 L304.772,139.719 L298.772,124.719"/></g><text fill="#000100" font-family="Helvetica" font-size="18" transform="matrix(1,0,0,1,97.3414,137.119)" xml:space="preserve"><tspan>X</tspan><tspan baseline-shift="sub">1</tspan></text><text fill="#000100" font-family="Helvetica" font-size="18" transform="matrix(1,0,0,1,177.321,137.119)" xml:space="preserve"><tspan>X</tspan><tspan baseline-shift="sub">2</tspan></text><text fill="#000100" font-family="Helvetica" font-size="18" transform="matrix(1,0,0,1,418.196,137.119)" xml:space="preserve"><tspan>X</tspan><tspan baseline-shift="sub">n-1</tspan></text><image xlink:href="8.pdf" width="430.081" height="315.393" transform="matrix(0.260372,0,0,0.260372,10.3,162.993)"/><image xlink:href="8.pdf" width="430.081" height="315.393" transform="matrix(0.260372,0,0,0.260372,248.781,6)"/><image xlink:href="8.pdf" width="430.081" height="315.393" transform="matrix(0.260372,0,0,0.260372,91.8,163)"/><image xlink:href="8.pdf" width="430.081" height="315.393" transform="matrix(0.260372,0,0,0.260372,168.781,163)"/><image xlink:href="8.pdf" width="430.081" height="315.393" transform="matrix(0.260372,0,0,0.260372,330.709,163)"/><image xlink:href="8.pdf" width="430.081" height="315.393" transform="matrix(0.260372,0,0,0.260372,424.209,163)"/></svg>
