<?xml version="1.0" encoding="UTF-8" standalone="no"?>
<!DOCTYPE svg PUBLIC "-//W3C//DTD SVG 1.1//EN" "http://www.w3.org/Graphics/SVG/1.1/DTD/svg11.dtd">
<!--Generated by Intaglio, www.PurgatoryDesign.com-->
<svg version="1.1" viewBox="0,0,576,734" width="576" height="734" xmlns="http://www.w3.org/2000/svg" xmlns:xlink="http://www.w3.org/1999/xlink" xmlns:intaglio="http://purgatorydesign.com/namespaces/intaglio" intaglio:grid="36,36,1,1,0.5,#9999bf,1,0,0,0" intaglio:guides="0.8,#f0f,1,1"><g><path fill="none" intaglio:arrow-end="1" stroke="#0049fd" stroke-width="3" d="M108,144.25 L108,122.125" intaglio:d="M108,144.25 L108,107.875"/><path fill="#0049fd" intaglio:omit="yes" d="M102,122.875 L108,107.875 L114,122.875"/></g><g><path fill="none" intaglio:arrow-end="1" stroke="#00ff18" stroke-width="3" d="M180.25,144.25 L180.25,122.125" intaglio:d="M180.25,144.25 L180.25,107.875"/><path fill="#00ff18" intaglio:omit="yes" d="M174.25,122.875 L180.25,107.875 L186.25,122.875"/></g><g><path fill="none" intaglio:arrow-start="1" stroke="#0049fd" stroke-width="3" d="M266.25,144.25 L288.25,144.25" intaglio:d="M252,144.25 L288.25,144.25"/><path fill="#0049fd" intaglio:omit="yes" d="M267,150.25 L252,144.25 L267,138.25"/></g><g><path fill="none" intaglio:arrow-end="1" stroke="#00ff18" stroke-width="3" d="M361,144.25 L383,144.25" intaglio:d="M361,144.25 L397.25,144.25"/><path fill="#00ff18" intaglio:omit="yes" d="M382.25,138.25 L397.25,144.25 L382.25,150.25"/></g><g><path fill="none" intaglio:arrow-start="1" stroke="#0049fd" stroke-width="3" d="M108.25,275.688 L108.25,253.562" intaglio:d="M108.25,289.938 L108.25,253.562"/><path fill="#0049fd" intaglio:omit="yes" d="M114.25,274.938 L108.25,289.938 L102.25,274.938"/></g><g><path fill="none" intaglio:arrow-start="1" stroke="#00ff18" stroke-width="3" d="M180.5,275.688 L180.5,253.562" intaglio:d="M180.5,289.938 L180.5,253.562"/><path fill="#00ff18" intaglio:omit="yes" d="M186.5,274.938 L180.5,289.938 L174.5,274.938"/></g><g><path fill="none" intaglio:arrow-end="1" stroke="#0049fd" stroke-width="3" d="M288.5,253.562 L308.5,253.562" intaglio:d="M288.5,253.562 L322.75,253.562"/><path fill="#0049fd" intaglio:omit="yes" d="M307.75,247.562 L322.75,253.562 L307.75,259.562"/></g><g><path fill="none" intaglio:arrow-end="1" stroke="#00ff18" stroke-width="3" d="M361.25,253.562 L341,253.562" intaglio:d="M361.25,253.562 L326.75,253.562"/><path fill="#00ff18" intaglio:omit="yes" d="M341.75,259.562 L326.75,253.562 L341.75,247.562"/></g><path stroke="#000200" d="M111.25,253.875 C111.25,255.532,109.907,256.875,108.25,256.875 C106.593,256.875,105.25,255.532,105.25,253.875 C105.25,252.218,106.593,250.875,108.25,250.875 C109.907,250.875,111.25,252.218,111.25,253.875 Z"/><path stroke="#000200" d="M183.5,253.5 C183.5,255.157,182.157,256.5,180.5,256.5 C178.843,256.5,177.5,255.157,177.5,253.5 C177.5,251.843,178.843,250.5,180.5,250.5 C182.157,250.5,183.5,251.843,183.5,253.5 Z"/><path stroke="#000200" d="M291.25,253.562 C291.25,255.219,289.907,256.562,288.25,256.562 C286.593,256.562,285.25,255.219,285.25,253.562 C285.25,251.906,286.593,250.562,288.25,250.562 C289.907,250.562,291.25,251.906,291.25,253.562 Z"/><path stroke="#000200" d="M291,144.25 C291,145.907,289.657,147.25,288,147.25 C286.343,147.25,285,145.907,285,144.25 C285,142.593,286.343,141.25,288,141.25 C289.657,141.25,291,142.593,291,144.25 Z"/><path stroke="#000200" d="M183.25,144.25 C183.25,145.907,181.907,147.25,180.25,147.25 C178.593,147.25,177.25,145.907,177.25,144.25 C177.25,142.593,178.593,141.25,180.25,141.25 C181.907,141.25,183.25,142.593,183.25,144.25 Z"/><path stroke="#000200" d="M363.875,144.25 C363.875,145.907,362.532,147.25,360.875,147.25 C359.218,147.25,357.875,145.907,357.875,144.25 C357.875,142.593,359.218,141.25,360.875,141.25 C362.532,141.25,363.875,142.593,363.875,144.25 Z"/><path stroke="#000200" d="M364.125,253.562 C364.125,255.219,362.782,256.562,361.125,256.562 C359.468,256.562,358.125,255.219,358.125,253.562 C358.125,251.906,359.468,250.562,361.125,250.562 C362.782,250.562,364.125,251.906,364.125,253.562 Z"/><path stroke="#000200" d="M111,144.25 C111,145.907,109.657,147.25,108,147.25 C106.343,147.25,105,145.907,105,144.25 C105,142.593,106.343,141.25,108,141.25 C109.657,141.25,111,142.593,111,144.25 Z"/><text fill="#000200" font-family="Arial" font-style="italic" font-size="18" transform="matrix(1,0,0,1,158.185,99.7119)" xml:space="preserve"><tspan>Ψ(-</tspan><tspan>L)</tspan></text><text fill="#000200" font-family="Arial" font-style="italic" font-size="18" transform="matrix(1,0,0,1,88.0972,99.7207)" xml:space="preserve"><tspan kerning="0">Q'(L</tspan><tspan font-family="Helvetica" font-style="normal" kerning="0">)</tspan></text><text fill="#000200" font-family="Arial" font-style="italic" font-size="18" transform="matrix(1,0,0,1,69.7915,176.605)" xml:space="preserve"><tspan kerning="0">&lt;Q'(L</tspan><tspan font-family="Helvetica" font-style="normal" kerning="0">),</tspan><tspan>Ψ(-</tspan><tspan>L)&gt;  &gt;  0</tspan></text><text fill="#000200" font-family="Arial" font-style="italic" font-size="18" transform="matrix(1,0,0,1,69.7915,313.605)" xml:space="preserve"><tspan kerning="0">&lt;Q'(L</tspan><tspan font-family="Helvetica" font-style="normal" kerning="0">),</tspan><tspan>Ψ(-</tspan><tspan>L)&gt;  &gt;  0</tspan></text><text fill="#000200" font-family="Arial" font-style="italic" font-size="18" transform="matrix(1,0,0,1,250.383,176.605)" xml:space="preserve"><tspan kerning="0">&lt;Q'(L</tspan><tspan font-family="Helvetica" font-style="normal" kerning="0">),</tspan><tspan>Ψ(-</tspan><tspan>L)&gt;  &lt;  0</tspan></text><text fill="#000200" font-family="Arial" font-style="italic" font-size="18" transform="matrix(1,0,0,1,248.152,313.605)" xml:space="preserve"><tspan kerning="0">&lt;Q'(L</tspan><tspan font-family="Helvetica" font-style="normal" kerning="0">),</tspan><tspan>Ψ(-</tspan><tspan>L)&gt;  &lt;  0</tspan></text></svg>
