<?xml version="1.0" encoding="UTF-8" standalone="no"?>
<!DOCTYPE svg PUBLIC "-//W3C//DTD SVG 1.1//EN" "http://www.w3.org/Graphics/SVG/1.1/DTD/svg11.dtd">
<!--Generated by Intaglio, www.PurgatoryDesign.com-->
<svg version="1.1" viewBox="0,0,576,734" width="576" height="734" xmlns="http://www.w3.org/2000/svg" xmlns:xlink="http://www.w3.org/1999/xlink" xmlns:intaglio="http://purgatorydesign.com/namespaces/intaglio" intaglio:grid="36,36,1,1,0.5,#9999bf,1,0,0,0" intaglio:guides="0.8,#f0f,1,1"><image xlink:href="1.pdf" width="560" height="420" transform="matrix(1,0,0,1,0,0)"/><path fill="#d20000" stroke="#000" d="M328,346.5 C328,348.433,326.433,350,324.5,350 C322.567,350,321,348.433,321,346.5 C321,344.567,322.567,343,324.5,343 C326.433,343,328,344.567,328,346.5 Z"/><path fill="#d20000" stroke="#000" d="M375,279 C375,280.933,373.433,282.5,371.5,282.5 C369.567,282.5,368,280.933,368,279 C368,277.067,369.567,275.5,371.5,275.5 C373.433,275.5,375,277.067,375,279 Z"/><path fill="#d20000" stroke="#000" d="M351.5,218 C351.5,219.933,349.933,221.5,348,221.5 C346.067,221.5,344.5,219.933,344.5,218 C344.5,216.067,346.067,214.5,348,214.5 C349.933,214.5,351.5,216.067,351.5,218 Z"/><path fill="#d20000" stroke="#000" d="M399,250 C399,251.933,397.433,253.5,395.5,253.5 C393.567,253.5,392,251.933,392,250 C392,248.067,393.567,246.5,395.5,246.5 C397.433,246.5,399,248.067,399,250 Z"/><path fill="#d20000" stroke="#000" d="M422.5,264.5 C422.5,266.433,420.933,268,419,268 C417.067,268,415.5,266.433,415.5,264.5 C415.5,262.567,417.067,261,419,261 C420.933,261,422.5,262.567,422.5,264.5 Z"/><path fill="#7dff18" stroke="#000" d="M341.75,259.25 C341.75,261.183,340.183,262.75,338.25,262.75 C336.317,262.75,334.75,261.183,334.75,259.25 C334.75,257.317,336.317,255.75,338.25,255.75 C340.183,255.75,341.75,257.317,341.75,259.25 Z"/><path fill="#7dff18" stroke="#000" d="M364.25,259.25 C364.25,261.183,362.683,262.75,360.75,262.75 C358.817,262.75,357.25,261.183,357.25,259.25 C357.25,257.317,358.817,255.75,360.75,255.75 C362.683,255.75,364.25,257.317,364.25,259.25 Z"/><path fill="#7dff18" stroke="#000" d="M387.75,259.25 C387.75,261.183,386.183,262.75,384.25,262.75 C382.317,262.75,380.75,261.183,380.75,259.25 C380.75,257.317,382.317,255.75,384.25,255.75 C386.183,255.75,387.75,257.317,387.75,259.25 Z"/><path fill="#7dff18" stroke="#000" d="M411,259.25 C411,261.183,409.433,262.75,407.5,262.75 C405.567,262.75,404,261.183,404,259.25 C404,257.317,405.567,255.75,407.5,255.75 C409.433,255.75,411,257.317,411,259.25 Z"/><path fill="none" stroke="#000" stroke-width="2" d="M324.375,246.5 L352.125,246.5 L352.125,274.25 L324.375,274.25 L324.375,246.5 Z"/></svg>
