<?xml version="1.0" encoding="UTF-8" standalone="no"?>
<!DOCTYPE svg PUBLIC "-//W3C//DTD SVG 1.1//EN" "http://www.w3.org/Graphics/SVG/1.1/DTD/svg11.dtd">
<!--Generated by Intaglio, www.PurgatoryDesign.com-->
<svg version="1.1" viewBox="0,0,734,576" width="734" height="576" xmlns="http://www.w3.org/2000/svg" xmlns:xlink="http://www.w3.org/1999/xlink" xmlns:intaglio="http://purgatorydesign.com/namespaces/intaglio" intaglio:grid="36,36,10,10,0.5,#9999bf,1,0,0,0" intaglio:guides="0.8,#f0f,1,1"><path fill="none" stroke="#000100" stroke-width="3" d="M36.5,107 L182,107"/><path fill="none" stroke="#000100" stroke-width="3" d="M110,37.5 L110,184.25"/><path fill="#000" stroke="#000" d="M118.75,107 C118.75,111.832,114.832,115.75,110,115.75 C105.168,115.75,101.25,111.832,101.25,107 C101.25,102.168,105.168,98.25,110,98.25 C114.832,98.25,118.75,102.168,118.75,107 Z"/><path fill="#0000ca" stroke="#002b98" d="M81.75,107 C81.75,111.832,77.8325,115.75,73,115.75 C68.1675,115.75,64.25,111.832,64.25,107 C64.25,102.168,68.1675,98.25,73,98.25 C77.8325,98.25,81.75,102.168,81.75,107 Z"/><path fill="none" stroke="#000100" stroke-width="3" d="M394.65,107 L540.15,107"/><path fill="none" stroke="#000100" stroke-width="3" d="M468.15,37.5 L468.15,184.25"/><path fill="#000" stroke="#000" d="M476.9,107 C476.9,111.832,472.982,115.75,468.15,115.75 C463.318,115.75,459.4,111.832,459.4,107 C459.4,102.168,463.318,98.25,468.15,98.25 C472.982,98.25,476.9,102.168,476.9,107 Z"/><path fill="#0000ca" stroke="#002b98" d="M476.15,72.6 C476.15,77.4325,472.232,81.35,467.4,81.35 C462.568,81.35,458.65,77.4325,458.65,72.6 C458.65,67.7675,462.568,63.85,467.4,63.85 C472.232,63.85,476.15,67.7675,476.15,72.6 Z"/><g><path fill="none" intaglio:arrow-end="1" stroke="#000" stroke-width="6" d="M252,107 L302.625,107" intaglio:d="M252,107 L324,107"/><path fill="#000" intaglio:omit="yes" d="M301.5,98 L324,107 L301.5,116"/></g><path fill="#0000ca" stroke="#002b98" d="M476.9,144.05 C476.9,148.882,472.982,152.8,468.15,152.8 C463.318,152.8,459.4,148.882,459.4,144.05 C459.4,139.218,463.318,135.3,468.15,135.3 C472.982,135.3,476.9,139.218,476.9,144.05 Z"/></svg>
