<?xml version="1.0" encoding="UTF-8" standalone="no"?>
<!DOCTYPE svg PUBLIC "-//W3C//DTD SVG 1.1//EN" "http://www.w3.org/Graphics/SVG/1.1/DTD/svg11.dtd">
<!--Generated by Intaglio, www.PurgatoryDesign.com-->
<svg version="1.1" viewBox="0,0,734,576" width="734" height="576" xmlns="http://www.w3.org/2000/svg" xmlns:xlink="http://www.w3.org/1999/xlink" xmlns:intaglio="http://purgatorydesign.com/namespaces/intaglio" intaglio:grid="36,36,10,10,0.5,#9999bf,1,0,0,0" intaglio:guides="0.8,#f0f,1,1"><path fill="none" stroke="#000100" stroke-width="3" d="M36.5,107 L182,107"/><path fill="none" stroke="#000100" stroke-width="3" d="M110,37.5 L110,184.25"/><path stroke="#000" d="M118.75,107 C118.75,111.832,114.832,115.75,110,115.75 C105.168,115.75,101.25,111.832,101.25,107 C101.25,102.168,105.168,98.25,110,98.25 C114.832,98.25,118.75,102.168,118.75,107 Z"/><path fill="#ff0004" stroke="#ff0004" d="M154.25,107 C154.25,111.832,150.332,115.75,145.5,115.75 C140.668,115.75,136.75,111.832,136.75,107 C136.75,102.168,140.668,98.25,145.5,98.25 C150.332,98.25,154.25,102.168,154.25,107 Z"/><path fill="none" stroke="#000100" stroke-width="3" d="M394.65,107 L540.15,107"/><path fill="none" stroke="#000100" stroke-width="3" d="M468.15,37.5 L468.15,184.25"/><path stroke="#000" d="M476.9,107 C476.9,111.832,472.982,115.75,468.15,115.75 C463.318,115.75,459.4,111.832,459.4,107 C459.4,102.168,463.318,98.25,468.15,98.25 C472.982,98.25,476.9,102.168,476.9,107 Z"/><g><path fill="none" intaglio:arrow-end="1" stroke="#000" stroke-width="6" d="M252,107 L302.625,107" intaglio:d="M252,107 L324,107"/><path intaglio:omit="yes" d="M301.5,98 L324,107 L301.5,116"/></g><path fill="#ff0004" stroke="#ff0004" d="M440.9,107 C440.9,111.832,436.982,115.75,432.15,115.75 C427.318,115.75,423.4,111.832,423.4,107 C423.4,102.168,427.318,98.25,432.15,98.25 C436.982,98.25,440.9,102.168,440.9,107 Z"/><path fill="#ff0004" stroke="#ff0004" d="M513.75,107 C513.75,111.832,509.832,115.75,505,115.75 C500.168,115.75,496.25,111.832,496.25,107 C496.25,102.168,500.168,98.25,505,98.25 C509.832,98.25,513.75,102.168,513.75,107 Z"/></svg>
