<?xml version="1.0" encoding="UTF-8" standalone="no"?>
<!DOCTYPE svg PUBLIC "-//W3C//DTD SVG 1.1//EN" "http://www.w3.org/Graphics/SVG/1.1/DTD/svg11.dtd">
<!--Generated by Intaglio, www.PurgatoryDesign.com-->
<svg version="1.1" viewBox="0,0,576,734" width="576" height="734" xmlns="http://www.w3.org/2000/svg" xmlns:xlink="http://www.w3.org/1999/xlink" xmlns:intaglio="http://purgatorydesign.com/namespaces/intaglio" intaglio:grid="36,36,1,1,0.5,#9999bf,1,0,0,0" intaglio:guides="0.8,#f0f,1,1"><image xlink:href="1.pdf" width="448" height="334" transform="matrix(1,0,0,1,0,0)"/><text font-family="Helvetica" font-style="oblique" font-size="18" transform="matrix(1,0,0,1,86.75,213.044)" xml:space="preserve"><tspan>Q(L)</tspan></text><path stroke="#000" d="M81.5059,119.498 C81.5059,122.397,79.1527,124.747,76.25,124.747 C73.3473,124.747,70.9941,122.397,70.9941,119.498 C70.9941,116.6,73.3473,114.25,76.25,114.25 C79.1527,114.25,81.5059,116.6,81.5059,119.498 Z"/><path stroke="#000" d="M81.5059,208.25 C81.5059,211.149,79.1527,213.498,76.25,213.498 C73.3473,213.498,70.9941,211.149,70.9941,208.25 C70.9941,205.351,73.3473,203.002,76.25,203.002 C79.1527,203.002,81.5059,205.351,81.5059,208.25 Z"/><text font-family="Helvetica" font-style="oblique" font-size="18" transform="matrix(1,0,0,1,47.5,103.794)" xml:space="preserve"><tspan>Q(-L)</tspan></text></svg>
