<?xml version="1.0" encoding="UTF-8" standalone="no"?>
<!DOCTYPE svg PUBLIC "-//W3C//DTD SVG 1.1//EN" "http://www.w3.org/Graphics/SVG/1.1/DTD/svg11.dtd">
<!--Generated by Intaglio, www.PurgatoryDesign.com-->
<svg version="1.1" viewBox="0,0,576,734" width="576" height="734" xmlns="http://www.w3.org/2000/svg" xmlns:xlink="http://www.w3.org/1999/xlink" xmlns:intaglio="http://purgatorydesign.com/namespaces/intaglio" intaglio:grid="36,36,1,1,0.5,#9999bf,1,0,0,0" intaglio:guides="0.8,#f0f,1,1"><path fill="none" stroke="#000100" stroke-width="3" d="M216,108 L361,108"/><path fill="none" stroke="#000100" stroke-width="3" d="M288.5,36 L288.5,179"/><path fill="#ff0004" stroke="#ff0004" d="M260.25,90 C260.25,93.866,257.116,97,253.25,97 C249.384,97,246.25,93.866,246.25,90 C246.25,86.134,249.384,83,253.25,83 C257.116,83,260.25,86.134,260.25,90 Z"/><path fill="#ff0004" stroke="#ff0004" d="M260.25,124.5 C260.25,128.366,257.116,131.5,253.25,131.5 C249.384,131.5,246.25,128.366,246.25,124.5 C246.25,120.634,249.384,117.5,253.25,117.5 C257.116,117.5,260.25,120.634,260.25,124.5 Z"/><path fill="#ff0004" stroke="#ff0004" d="M332.25,90 C332.25,93.866,329.116,97,325.25,97 C321.384,97,318.25,93.866,318.25,90 C318.25,86.134,321.384,83,325.25,83 C329.116,83,332.25,86.134,332.25,90 Z"/><path fill="#ff0004" stroke="#ff0004" d="M332.25,124.5 C332.25,128.366,329.116,131.5,325.25,131.5 C321.384,131.5,318.25,128.366,318.25,124.5 C318.25,120.634,321.384,117.5,325.25,117.5 C329.116,117.5,332.25,120.634,332.25,124.5 Z"/><path fill="#ff0004" stroke="#ff0004" d="M295.5,108 C295.5,111.866,292.366,115,288.5,115 C284.634,115,281.5,111.866,281.5,108 C281.5,104.134,284.634,101,288.5,101 C292.366,101,295.5,104.134,295.5,108 Z"/></svg>
